<?xml version="1.0" encoding="utf-8"?>
<!DOCTYPE svg PUBLIC "-//W3C//DTD SVG 1.1//EN" "http://www.w3.org/Graphics/SVG/1.1/DTD/svg11.dtd">
<svg version="1.1" xmlns="http://www.w3.org/2000/svg" xmlns:xlink="http://www.w3.org/1999/xlink" x="0px" y="0px"
	 width="300px" height="300px" xml:space="preserve">
<g>
	<path fill="#0000FF" d="M257.889,193.128l3.525-2.102c0.332-0.196,0.524-0.571,0.496-0.965c-0.027-0.393-0.27-0.735-0.625-0.882
		l-16.386-6.742c-0.371-0.151-0.793-0.062-1.075,0.229s-0.369,0.727-0.221,1.108l6.536,16.905c0.141,0.365,0.473,0.616,0.854,0.645
		c0.382,0.027,0.745-0.171,0.936-0.512l2.037-3.637l5.029,5.188c0.188,0.193,0.441,0.302,0.705,0.302
		c0.265,0,0.518-0.108,0.705-0.302l2.514-2.593c0.389-0.401,0.389-1.053,0-1.455L257.889,193.128z"/>
	<path fill="#FF00FF" d="M273.324,180.643l-2.127-2.849c-0.336-0.45-0.962-0.534-1.398-0.187c-0.437,0.346-0.518,0.992-0.182,1.441
		l0.891,1.192h-4.306v-4.452l1.148,0.917c0.182,0.146,0.396,0.216,0.609,0.216c0.298,0,0.593-0.139,0.79-0.4
		c0.337-0.449,0.256-1.096-0.18-1.443l-2.756-2.198c-0.359-0.286-0.86-0.286-1.22,0l-2.756,2.198
		c-0.437,0.348-0.516,0.994-0.179,1.443s0.963,0.532,1.398,0.185l1.148-0.917v4.453h-4.305l0.891-1.193
		c0.336-0.449,0.254-1.096-0.182-1.441c-0.437-0.348-1.062-0.264-1.399,0.188l-2.127,2.848c-0.276,0.37-0.276,0.886,0,1.256
		l2.127,2.848c0.196,0.264,0.492,0.402,0.791,0.402c0.212,0,0.427-0.07,0.608-0.215c0.436-0.347,0.518-0.992,0.181-1.443
		l-0.89-1.191h4.305v4.451l-1.148-0.916c-0.436-0.347-1.062-0.265-1.398,0.185s-0.258,1.095,0.178,1.442l2.756,2.199
		c0.18,0.144,0.396,0.216,0.611,0.216s0.43-0.072,0.609-0.216l2.756-2.199c0.436-0.348,0.516-0.993,0.18-1.442
		c-0.338-0.449-0.964-0.531-1.399-0.185l-1.149,0.916v-4.451h4.307l-0.891,1.191c-0.336,0.451-0.255,1.097,0.182,1.443
		c0.182,0.145,0.396,0.214,0.607,0.214c0.299,0,0.595-0.138,0.791-0.401l2.127-2.848
		C273.601,181.527,273.601,181.012,273.324,180.643z"/>
</g>
</svg>
