<?xml version="1.0" encoding="utf-8"?>
<!DOCTYPE svg PUBLIC "-//W3C//DTD SVG 1.1//EN" "http://www.w3.org/Graphics/SVG/1.1/DTD/svg11.dtd">
<svg version="1.1" id="Capa_1" xmlns="http://www.w3.org/2000/svg" xmlns:xlink="http://www.w3.org/1999/xlink" x="0px" y="0px"
	 width="512px" height="512px" viewBox="0 0 512 512" enable-background="new 0 0 512 512" xml:space="preserve">
<g>
	<path fill="#0000FF" d="M257.889,193.128l3.525-2.102c0.332-0.196,0.524-0.571,0.496-0.965c-0.027-0.393-0.27-0.735-0.625-0.882
		l-16.386-6.742c-0.371-0.151-0.793-0.062-1.075,0.229s-0.369,0.727-0.221,1.108l6.536,16.905c0.141,0.365,0.473,0.616,0.854,0.645
		c0.382,0.027,0.745-0.171,0.936-0.512l2.037-3.637l5.029,5.188c0.188,0.193,0.441,0.302,0.705,0.302
		c0.265,0,0.518-0.108,0.705-0.302l2.514-2.593c0.389-0.401,0.389-1.053,0-1.455L257.889,193.128z"/>
	<path fill="#FF00FF" d="M273.324,180.643l-2.127-2.849c-0.336-0.45-0.962-0.534-1.398-0.187c-0.437,0.346-0.518,0.992-0.182,1.441
		l0.891,1.192h-4.306v-4.452l1.148,0.917c0.182,0.146,0.396,0.216,0.609,0.216c0.298,0,0.593-0.139,0.79-0.4
		c0.337-0.449,0.256-1.096-0.18-1.443l-2.756-2.198c-0.359-0.286-0.86-0.286-1.22,0l-2.756,2.198
		c-0.437,0.348-0.516,0.994-0.179,1.443s0.963,0.532,1.398,0.185l1.148-0.917v4.453h-4.305l0.891-1.193
		c0.336-0.449,0.254-1.096-0.182-1.441c-0.437-0.348-1.062-0.264-1.399,0.188l-2.127,2.848c-0.276,0.37-0.276,0.886,0,1.256
		l2.127,2.848c0.196,0.264,0.492,0.402,0.791,0.402c0.212,0,0.427-0.07,0.608-0.215c0.436-0.347,0.518-0.992,0.181-1.443
		l-0.89-1.191h4.305v4.451l-1.148-0.916c-0.436-0.347-1.062-0.265-1.398,0.185s-0.258,1.095,0.178,1.442l2.756,2.199
		c0.18,0.144,0.396,0.216,0.611,0.216s0.43-0.072,0.609-0.216l2.756-2.199c0.436-0.348,0.516-0.993,0.18-1.442
		c-0.338-0.449-0.964-0.531-1.399-0.185l-1.149,0.916v-4.451h4.307l-0.891,1.191c-0.336,0.451-0.255,1.097,0.182,1.443
		c0.182,0.145,0.396,0.214,0.607,0.214c0.299,0,0.595-0.138,0.791-0.401l2.127-2.848
		C273.601,181.527,273.601,181.012,273.324,180.643z"/>
</g>
<g>
	<path fill="#0000FF" d="M268.121,220.628l-5.948-5.546c-0.333-0.31-0.872-0.31-1.205,0l-14.789,13.788
		c-0.119,0.111-0.201,0.253-0.233,0.407l-1.474,6.919c-0.055,0.261,0.032,0.529,0.233,0.718c0.162,0.15,0.379,0.232,0.603,0.232
		c0.055,0,0.111-0.006,0.166-0.016l7.421-1.374c0.165-0.03,0.317-0.106,0.437-0.218l14.789-13.787
		C268.454,221.441,268.454,220.938,268.121,220.628z M246.736,233.725l0.771-3.616l4.497,4.192l-3.879,0.719L246.736,233.725z"/>
	<path fill="#FF7BAC" d="M260.687,238.912c-8.152-3.182-13.46,2.081-15.046,2.881c-2.026,1.021-4.881,2.222-5.544,0.144
		c-0.4-1.254,1.764-2.595,3.198-3.012c1.045-0.306,0.599-1.84-0.454-1.533c-2.226,0.649-4.882,2.397-4.416,4.858
		c0.346,1.828,2.804,3.496,7.544,1.178c3.445-1.686,5.785-5.176,13.042-3.369c2.383,0.594,4.31,2.043,5.135,4.245
		c0.36,0.962,2.008,0.548,1.645-0.423C264.909,241.533,263.131,239.866,260.687,238.912z"/>
</g>
<g>
	<path fill="#FF0000" d="M267.621,270.193h-0.5c-0.138,0-0.25-0.111-0.25-0.25v-6c0-2.343-1.906-4.25-4.25-4.25h-2
		c-2.344,0-4.25,1.907-4.25,4.25c0,0.414,0.336,0.75,0.75,0.75h2c0.414,0,0.75-0.336,0.75-0.75c0-1.163,0.65-2.75,1.75-2.75
		s1.75,1.587,1.75,2.75v0.463c-0.754,0.24-1.499,0.369-2.224,0.488c-1.508,0.245-2.932,0.477-3.962,1.732
		c-0.799,0.975-0.994,2.217-0.508,3.244c0.548,1.158,1.803,1.822,3.443,1.822h1c0.891,0,1.728-0.214,2.63-0.675
		c0.32,0.408,0.812,0.675,1.37,0.675h2.5c0.414,0,0.75-0.336,0.75-0.75S268.035,270.193,267.621,270.193z M263.371,269.521
		c-0.81,0.463-1.516,0.672-2.25,0.672c-0.676,0-0.977-0.448-1.095-0.716c-0.227-0.509-0.219-1.286,0.311-1.872
		c0.665-0.736,1.886-1.199,3.034-1.562V269.521L263.371,269.521L263.371,269.521z"/>
	<path fill="#0000FF" d="M255.121,270.193h-0.498l-6.809-16.535c-0.115-0.281-0.39-0.465-0.693-0.465s-0.578,0.184-0.694,0.465
		l-6.809,16.535h-0.498c-0.414,0-0.75,0.336-0.75,0.75s0.336,0.75,0.75,0.75h1.002c0.003,0,0.006,0,0.009,0h0.989
		c0.414,0,0.75-0.336,0.75-0.75c0-0.374-0.275-0.682-0.635-0.738l1.446-3.512h6.377l1.446,3.512
		c-0.359,0.057-0.635,0.364-0.635,0.738c0,0.414,0.335,0.75,0.75,0.75h4.5c0.414,0,0.75-0.336,0.75-0.75
		S255.535,270.193,255.121,270.193z M243.3,265.193l2.571-6.244l2.571,6.244H243.3z"/>
</g>
<path fill="#0000FF" d="M266.857,320.605c-2.524-1.992-5.875-3.089-9.435-3.089c-3.56,0-6.91,1.097-9.434,3.089
	c-2.548,2.012-3.952,4.693-3.952,7.551c0,1.72,0.527,3.428,1.525,4.939c0.92,1.395,2.241,2.627,3.83,3.575
	c-0.074,0.513-0.468,2.016-2.589,3.806c-0.109,0.092-0.154,0.24-0.113,0.377c0.04,0.138,0.158,0.238,0.299,0.256
	c0.012,0.002,0.321,0.042,0.869,0.042c1.563,0,4.756-0.31,8.661-2.379c0.302,0.017,0.604,0.024,0.904,0.024
	c3.56,0,6.91-1.098,9.435-3.088c2.548-2.012,3.951-4.693,3.951-7.553C270.809,325.299,269.405,322.617,266.857,320.605z"/>
<g>
	<circle fill="#FF00FF" cx="257.423" cy="300.758" r="7.758"/>
	<path fill="#FFFF00" d="M257.423,285.241V293c3.567,0,6.565,2.41,7.472,5.689h5.977v-13.448H257.423L257.423,285.241z"/>
	<path fill="#0000FF" d="M257.423,293v-1.609l-6.111-10.693l-10.441,17.992h9.081C250.858,295.41,253.855,293,257.423,293z"/>
</g>
</svg>
