<?xml version="1.0" encoding="iso-8859-1"?>
<!-- Generator: Adobe Illustrator 18.0.0, SVG Export Plug-In . SVG Version: 6.00 Build 0)  -->
<!DOCTYPE svg PUBLIC "-//W3C//DTD SVG 1.1//EN" "http://www.w3.org/Graphics/SVG/1.1/DTD/svg11.dtd">
<svg version="1.1" id="Capa_1" xmlns="http://www.w3.org/2000/svg" xmlns:xlink="http://www.w3.org/1999/xlink" x="0px" y="0px"
	 viewBox="0 0 209.685 209.685" style="enable-background:new 0 0 209.685 209.685;" xml:space="preserve">
<path d="M44.736,166.098L65.5,202.064l71.664-41.375l-20.766-35.966l-4.464,2.577L88.067,65.798L0,7.621l6.35,105.357l41.329,51.422
	L44.736,166.098z M116.674,155.199L70.99,181.573l-5.764-9.985l45.682-26.375L116.674,155.199z M21.035,107.305l-4.256-70.623
	l59.032,38.997l22.977,59.211l-37.965,21.92L21.035,107.305z M64.854,83.581c-3.238-5.61-9.276-9.095-15.759-9.095
	c-3.18,0-6.321,0.843-9.081,2.438c-4.208,2.429-7.218,6.35-8.476,11.042c-1.257,4.692-0.611,9.593,1.817,13.802
	c3.24,5.609,9.278,9.094,15.76,9.094c3.179,0,6.319-0.843,9.083-2.439C66.881,103.409,69.866,92.265,64.854,83.581z
	 M139.685,129.319h70v7.5v7.5h-70V129.319z"/>
<g>
</g>
<g>
</g>
<g>
</g>
<g>
</g>
<g>
</g>
<g>
</g>
<g>
</g>
<g>
</g>
<g>
</g>
<g>
</g>
<g>
</g>
<g>
</g>
<g>
</g>
<g>
</g>
<g>
</g>
</svg>
