<?xml version="1.0" encoding="iso-8859-1"?>
<!-- Generator: Adobe Illustrator 18.0.0, SVG Export Plug-In . SVG Version: 6.00 Build 0)  -->
<!DOCTYPE svg PUBLIC "-//W3C//DTD SVG 1.1//EN" "http://www.w3.org/Graphics/SVG/1.1/DTD/svg11.dtd">
<svg version="1.1" id="Capa_1" xmlns="http://www.w3.org/2000/svg" xmlns:xlink="http://www.w3.org/1999/xlink" x="0px" y="0px"
	 viewBox="0 0 172.037 172.037" style="enable-background:new 0 0 172.037 172.037;" xml:space="preserve">
<path d="M99.802,110.409L61.627,72.234l10.607-10.606l38.175,38.175L99.802,110.409z M126.378,56.265l-18.377,18.377L97.394,64.035
	l18.378-18.377L78.185,8.074L172.037,0l-8.071,93.85L126.378,56.265z M151.782,60.455l3.782-43.981l-43.983,3.783L151.782,60.455z
	 M74.644,108.002l-18.377,18.377l37.586,37.585L0,172.037l8.071-93.85l37.588,37.586l18.377-18.377L74.644,108.002z M20.255,111.582
	l-3.782,43.982l43.983-3.783L20.255,111.582z"/>
<g>
</g>
<g>
</g>
<g>
</g>
<g>
</g>
<g>
</g>
<g>
</g>
<g>
</g>
<g>
</g>
<g>
</g>
<g>
</g>
<g>
</g>
<g>
</g>
<g>
</g>
<g>
</g>
<g>
</g>
</svg>
