<?xml version="1.0" encoding="iso-8859-1"?>
<!-- Generator: Adobe Illustrator 18.0.0, SVG Export Plug-In . SVG Version: 6.00 Build 0)  -->
<!DOCTYPE svg PUBLIC "-//W3C//DTD SVG 1.1//EN" "http://www.w3.org/Graphics/SVG/1.1/DTD/svg11.dtd">
<svg version="1.1" id="Capa_1" xmlns="http://www.w3.org/2000/svg" xmlns:xlink="http://www.w3.org/1999/xlink" x="0px" y="0px"
	 viewBox="0 0 225.158 225.158" style="enable-background:new 0 0 225.158 225.158;" xml:space="preserve">
<path d="M192.833,51.713c-1.984-0.507-3.964-0.764-5.884-0.764c-5.801,0-10.449,2.24-14.024,5.331l1.425-9.234
	c0.982-6.747-0.551-13.418-4.207-18.303c-3.447-4.606-8.565-7.508-14.801-8.394c-1.132-0.161-2.266-0.243-3.37-0.243
	c-6.642,0-11.916,2.838-15.727,6.981l-0.002-4.253C136.243,10.243,126,0,113.409,0c-12.561,0-22.785,10.195-22.833,22.746
	l-0.374,17.253l-0.784-4.37l-0.079-0.385c-1.376-5.873-7.47-16.98-20.688-16.98c-1.811,0-3.702,0.217-5.622,0.645
	C48.291,22.196,45.39,35.766,47.03,44.181l10.332,61.827c-5.958-5.622-12.173-8.458-18.579-8.458c-3.434,0-6.821,0.837-10.07,2.489
	c-11.182,5.686-15.792,19.389-10.277,30.548l27.95,56.563c0.79,1.552,19.731,38.008,54.023,38.008h40
	c31.54,0,57.199-25.794,57.199-57.506l-0.03-40.637l10.439-45.42c0.542-1.991,2.848-11.83-1.908-20.171
	C203.352,56.585,198.761,53.228,192.833,51.713z M193.548,77.642l-10.972,47.677l0.032,42.339c0,23.435-18.931,42.5-42.199,42.5h-40
	c-24.691,0-40.077-28.713-40.646-29.795l-27.88-56.421c-1.924-3.893-0.33-8.519,3.629-10.532c1.139-0.579,2.209-0.86,3.271-0.86
	c8.946,0,20.342,19.333,25.224,32.395l14.427-3.852L61.807,41.598l-0.029-0.165c-0.533-3.018-0.182-6.835,4.517-7.883
	c0.85-0.189,1.643-0.286,2.356-0.286c4.266,0,5.753,4.24,6.054,5.292l13.99,77.936l14.88-1.163l2-92.333l0.002-0.163
	c0-4.393,3.44-7.834,7.833-7.834s7.834,3.441,7.834,7.837l0.043,93.495l14.956,0.804l7.935-73.281c0.58-3.33,2.835-8.75,7.795-8.75
	c0.401,0,0.825,0.032,1.261,0.093c2.264,0.322,3.867,1.15,4.901,2.532c1.266,1.69,1.778,4.364,1.382,7.09l-11.422,74.036
	l14.534,3.495l15.934-48.256c0.025-0.082,2.825-8.146,8.388-8.146c0.669,0,1.399,0.1,2.171,0.297
	c2.574,0.658,3.481,1.784,3.939,2.573C194.677,71.608,193.925,76.277,193.548,77.642z"/>
<g>
</g>
<g>
</g>
<g>
</g>
<g>
</g>
<g>
</g>
<g>
</g>
<g>
</g>
<g>
</g>
<g>
</g>
<g>
</g>
<g>
</g>
<g>
</g>
<g>
</g>
<g>
</g>
<g>
</g>
</svg>
