<?xml version="1.0" encoding="iso-8859-1"?>
<!-- Generator: Adobe Illustrator 18.0.0, SVG Export Plug-In . SVG Version: 6.00 Build 0)  -->
<!DOCTYPE svg PUBLIC "-//W3C//DTD SVG 1.1//EN" "http://www.w3.org/Graphics/SVG/1.1/DTD/svg11.dtd">
<svg version="1.1" id="Capa_1" xmlns="http://www.w3.org/2000/svg" xmlns:xlink="http://www.w3.org/1999/xlink" x="0px" y="0px"
	 viewBox="0 0 219.813 219.813" style="enable-background:new 0 0 219.813 219.813;" xml:space="preserve">
<path d="M109.907,0c-48.369,0-87.72,39.351-87.72,87.72c0,13.018,2.787,25.551,8.283,37.253l13.576-6.377
	c-4.552-9.691-6.859-20.079-6.859-30.876c0-40.098,32.622-72.72,72.72-72.72s72.72,32.622,72.72,72.72
	c0,31.086-19.613,57.667-47.109,68.05v-41.849l-92.338,52.946l92.338,52.946v-48.191c35.914-10.984,62.109-44.439,62.109-83.902
	C197.626,39.351,158.276,0,109.907,0z M120.517,193.921l-47.182-27.054l47.182-27.054V193.921z"/>
<g>
</g>
<g>
</g>
<g>
</g>
<g>
</g>
<g>
</g>
<g>
</g>
<g>
</g>
<g>
</g>
<g>
</g>
<g>
</g>
<g>
</g>
<g>
</g>
<g>
</g>
<g>
</g>
<g>
</g>
</svg>
